<?xml version="1.0" encoding="utf-8"?>
<!-- Svg Vector Icons : http://www.onlinewebfonts.com/icon -->
<!DOCTYPE svg PUBLIC "-//W3C//DTD SVG 1.1//EN" "http://www.w3.org/Graphics/SVG/1.1/DTD/svg11.dtd">
<svg version="1.1" xmlns="http://www.w3.org/2000/svg" xmlns:xlink="http://www.w3.org/1999/xlink" x="0px" y="0px" viewBox="0 0 1000 1000" enable-background="new 0 0 1000 1000" xml:space="preserve">
<metadata> Svg Vector Icons : http://www.onlinewebfonts.com/icon </metadata>
<g><path d="M758.7,512.8L744,494.6C793.6,122.9,511.8,14.4,508.9,13.3L500,10l-8.9,3.3c-2.9,1-284.7,109.6-235.1,481.3l-14.8,18.2c-94.1,115.5-94.1,116.5-94.1,128.7c0,1.9,19.2,210.5,90.4,266.1l12,5.8h7.7c8.3,0,28.4-3.1,38.8-32.1c2.9-8.1,3.5-18.8,4.5-40.3c2.1-43.1,6.4-132.8,46.2-137.8l25.3-3.3c-17.4,32.1-62.7,149.7,111.9,279.3l14.4,10.7l14.9-9.8c66.4-43.3,174.4-156.8,116.7-280l23.3,3c39.8,5.1,44.1,94.8,46.2,137.8c1,21.5,1.6,32.1,4.5,40.3c10.4,28.9,30.6,32.1,38.8,32.1l14.4-1.5l7-5.5c69.5-54.5,88.7-263,88.7-264.9C852.8,629.3,852.8,628.2,758.7,512.8z M374.8,695.1l-1.9-7.2h6.7l-2.2,3.1C377.3,691.1,376.2,692.8,374.8,695.1z M626.2,691.8l-2-3.8h3L626.2,691.8z M499.7,926.6c-115.9-92.9-98.6-168-86.8-194.7l175.1-0.1C621.3,821.4,535.5,899.1,499.7,926.6z M750.8,843.4c-0.1-1.5-0.1-3.2-0.2-4.9c-2.6-53.6-7.1-147.6-63.1-177.6l6.5-24.3H306l6.5,24.3c-56,30-60.5,124-63.1,177.6c-0.1,1.3-0.1,2.6-0.2,3.8c-28.9-52.5-46.5-159.4-50-194.6c13.5-18.6,58.9-74.4,81.9-102.8l29-35.8l-1.7-11C262.8,192.5,454.9,85.8,500,65.2c45.1,20.6,237.3,127.3,191.6,433.1l-1.7,11.1l29,35.8c23,28.3,68.3,84,81.8,102.6C797,684.9,779.3,792.7,750.8,843.4z"/><path d="M500,204.4c-79,0-143.3,60.9-143.3,135.7S421.1,475.9,500,475.9c79,0,143.2-60.9,143.2-135.7C643.3,265.3,579.1,204.4,500,204.4z M500,424.5c-50.7,0-92-37.8-92-84.4c0-46.6,41.2-84.4,92-84.4c50.7,0,91.9,37.8,91.9,84.4C591.9,386.7,550.7,424.5,500,424.5z"/></g>
</svg>